<svg xmlns="http://www.w3.org/2000/svg" viewBox="0 0 1280 760" role="img"><rect width="1280" height="760" fill="#020608"/><rect x="16" y="16" width="1248" height="728" rx="20" fill="#040b0f" stroke="#17343f"/><rect x="32" y="32" width="1216" height="118" rx="14" fill="#061117" stroke="#17343f"/><text x="54" y="82" fill="#79ff42" font-family="Arial" font-size="44" font-weight="900">135er-Grow Central</text><text x="56" y="116" fill="#41e7c3" font-family="monospace" font-size="14">CLOUD DESKTOP • OPTIONAL REMOTE OVERVIEW</text><text x="1215" y="116" text-anchor="end" fill="#78979d" font-family="monospace" font-size="13">J. L. 1976</text><g font-family="monospace"><rect x="36" y="174" width="286" height="112" rx="12" fill="#07151b" stroke="#17343f"/><text x="56" y="208" fill="#78979d">SITES ONLINE</text><text x="56" y="257" fill="#eef9f7" font-size="34">3 / 3</text><rect x="334" y="174" width="286" height="112" rx="12" fill="#07151b" stroke="#17343f"/><text x="354" y="208" fill="#78979d">TOTAL POWER</text><text x="354" y="257" fill="#eef9f7" font-size="34">0.86 kW</text><rect x="632" y="174" width="286" height="112" rx="12" fill="#07151b" stroke="#17343f"/><text x="652" y="208" fill="#78979d">ENERGY TODAY</text><text x="652" y="257" fill="#eef9f7" font-size="34">8.24 kWh</text><rect x="930" y="174" width="314" height="112" rx="12" fill="#07151b" stroke="#17343f"/><text x="950" y="208" fill="#78979d">SYNC</text><text x="950" y="257" fill="#eef9f7" font-size="34">OPTIONAL</text></g><rect x="36" y="310" width="760" height="390" rx="14" fill="#061117" stroke="#17343f"/><text x="60" y="350" fill="#41e7c3" font-family="monospace" font-size="16">SITE ENERGY OVERVIEW</text><path d="M64 600 C150 520,225 590,310 500 S470 565,560 470 S675 540,765 455" fill="none" stroke="#41e7c3" stroke-width="5"/><path d="M64 635 C145 590,230 640,320 560 S480 625,575 535 S690 600,765 545" fill="none" stroke="#79ff42" stroke-width="4"/><g fill="#eef9f7" font-family="monospace" font-size="16"><text x="70" y="415">SITE 01  LOCAL ONLINE</text><text x="70" y="455">SITE 02  LOCAL ONLINE</text><text x="70" y="495">SITE 03  LOCAL ONLINE</text></g><rect x="818" y="310" width="426" height="390" rx="14" fill="#061117" stroke="#17343f"/><text x="842" y="350" fill="#41e7c3" font-family="monospace" font-size="16">SECURITY / AUDIT</text><g fill="#eef9f7" font-family="monospace" font-size="17"><text x="850" y="415">REMOTE WRITE   DENY DEFAULT</text><text x="850" y="465">APPROVAL       REQUIRED</text><text x="850" y="515">TOKEN          REQUIRED</text><text x="850" y="565">PUBLIC SITE    STATIC ONLY</text><text x="850" y="615">PI AUTHORITY   LOCAL</text></g><text x="842" y="666" fill="#78979d" font-family="monospace" font-size="13">WIP • cloud never replaces local control</text></svg>
